<svg xmlns="http://www.w3.org/2000/svg" width="48" height="48" viewBox="0 0 48 48" id="asp"><g display="none"><rect width="48" height="48" fill="#fff" color="#000" overflow="visible" style="isolation:auto;mix-blend-mode:normal"></rect><rect style="isolation:auto;mix-blend-mode:normal" width="48" height="48" x="-46.987" fill="#fff" color="#000" overflow="visible"></rect><rect width="48" height="48" x="-102.987" fill="#fff" color="#000" overflow="visible" style="isolation:auto;mix-blend-mode:normal"></rect><rect style="isolation:auto;mix-blend-mode:normal" width="48" height="48" y="57.592" fill="#fff" color="#000" overflow="visible"></rect><rect width="48" height="48" x="-46.987" y="57.592" fill="#fff" color="#000" overflow="visible" style="isolation:auto;mix-blend-mode:normal"></rect><rect style="isolation:auto;mix-blend-mode:normal" width="48" height="48" x="-102.987" y="57.592" fill="#fff" color="#000" overflow="visible"></rect><rect width="48" height="48" y="117.592" fill="#fff" color="#000" overflow="visible" style="isolation:auto;mix-blend-mode:normal"></rect><rect style="isolation:auto;mix-blend-mode:normal" width="48" height="48" x="-46.987" y="117.592" fill="#fff" color="#000" overflow="visible"></rect><rect width="48" height="48" x="-102.987" y="117.592" fill="#fff" color="#000" overflow="visible" style="isolation:auto;mix-blend-mode:normal"></rect><rect style="isolation:auto;mix-blend-mode:normal" width="48" height="48" y="173.592" fill="#fff" color="#000" overflow="visible"></rect><rect width="48" height="48" x="-46.987" y="173.592" fill="#fff" color="#000" overflow="visible" style="isolation:auto;mix-blend-mode:normal"></rect><rect style="isolation:auto;mix-blend-mode:normal" width="48" height="48" x="-102.987" y="173.592" fill="#fff" color="#000" overflow="visible"></rect><rect width="48" height="48" y="231.592" fill="#fff" color="#000" overflow="visible" style="isolation:auto;mix-blend-mode:normal"></rect><rect style="isolation:auto;mix-blend-mode:normal" width="48" height="48" x="-46.987" y="231.592" fill="#fff" color="#000" overflow="visible"></rect><rect width="48" height="48" x="-102.987" y="231.592" fill="#fff" color="#000" overflow="visible" style="isolation:auto;mix-blend-mode:normal"></rect></g><g transform="translate(-955 -1110.362)"><path fill="#242730" style="line-height:normal;text-indent:0;text-align:start;text-decoration-line:none;text-decoration-style:solid;text-decoration-color:#000;text-transform:none;block-progression:tb;isolation:auto;mix-blend-mode:normal" d="m 981,1112.3622 c -0.554,0 -1,0.446 -1,1 l 0,1 c 0,0.554 0.446,1 1,1 l 10.0039,0 0.016,6.4844 c 0,0.8253 0.6708,1.4938 1.4961,1.4961 l 6.4844,0.017 0,28.502 c 0,0.8569 -0.6431,1.5 -1.5,1.5 l -23,0 c -0.857,0 -1.5,-0.6431 -1.5,-1.5 l 0,-1.5 c 0,-0.554 -0.446,-1 -1,-1 l -1,0 c -0.554,0 -1,0.446 -1,1 l 0,1.5 c 0,2.4671 2.0329,4.5 4.5,4.5 l 23,0 c 2.467,0 4.5,-2.0329 4.5,-4.5 l 0,-30.4863 c -10e-5,-0.3978 -0.1582,-0.7793 -0.4395,-1.0606 l -7.5137,-7.5136 c -0.2812,-0.2814 -0.6627,-0.4394 -1.0605,-0.4395 z m -11,21 c 0,0.554 0.446,1 1,1 l 1,0 c 0.554,0 1,-0.446 1,-1 l 0,-10 c 0,-0.554 -0.446,-1 -1,-1 l -1,0 c -0.554,0 -1,0.446 -1,1 z" color="#000" font-family="sans-serif" font-weight="400" overflow="visible"></path><path fill="#11c111" style="line-height:normal;text-indent:0;text-align:start;text-decoration-line:none;text-decoration-style:solid;text-decoration-color:#000;text-transform:none;block-progression:tb;isolation:auto;mix-blend-mode:normal" d="m 974.5,108 c -2.467,0 -4.5,2.0329 -4.5,4.5 l 0,2.5 c 0,0.554 0.446,1 1,1 l 1,0 c 0.554,0 1,-0.446 1,-1 l 0,-2.5 c 0,-0.8569 0.6431,-1.5 1.5,-1.5 l 2.5,0 c 0.554,0 1,-0.446 1,-1 l 0,-1 c 0,-0.554 -0.446,-1 -1,-1 l -2.5,0 z M 959,132 c -1.108,0 -2,0.892 -2,2 l 0,7 c 0,1.108 0.892,2 2,2 l 25,0 c 1.108,0 2,-0.892 2,-2 l 0,-7 c 0,-1.108 -0.892,-2 -2,-2 l -25,0 z m 12.66211,2.58594 c 0.4296,0 0.82156,0.0859 1.22266,0.25781 0.105,-0.2289 0.21876,-0.25781 0.47656,-0.25781 0.3055,0 0.38258,0.0969 0.39258,0.49804 l 0.0195,0.89649 0,0.0488 c 0,0.3533 -0.11572,0.49609 -0.47852,0.49609 -0.382,0 -0.42065,-0.21025 -0.53515,-0.43945 -0.191,-0.3724 -0.52386,-0.58203 -0.97266,-0.58203 -0.5825,0 -0.93555,0.3056 -0.93555,0.6875 0,0.487 0.53355,0.53387 1.49805,0.73437 1.1554,0.2387 1.69922,0.75577 1.69922,1.70117 0,1.1458 -0.80055,1.78516 -2.25195,1.78516 -0.4774,0 -0.9173,-0.049 -1.4043,-0.23047 -0.1051,0.1812 -0.22936,0.23047 -0.43946,0.23047 -0.38189,0 -0.52515,-0.11436 -0.53515,-0.50586 l -0.0273,-1.09961 0,-0.0469 c 0,-0.401 0.13194,-0.55469 0.52344,-0.55469 0.3629,0 0.41209,0.26736 0.58399,0.60156 0.2483,0.487 0.66863,0.7168 1.29883,0.7168 0.5634,0 0.90624,-0.23854 0.90624,-0.67774 0,-0.6016 -0.53563,-0.602 -1.58593,-0.8789 -1.0504,-0.2769 -1.60352,-0.63088 -1.60352,-1.57618 0,-1.05999 0.87844,-1.80468 2.14844,-1.80468 z m -7.14063,0.15429 0.002,0 1.74804,0 c 0.4201,0 0.45784,0.11324 0.58204,0.45704 l 1.48046,4.04882 0.0762,0 c 0.3342,0 0.51562,0.17166 0.51562,0.50586 0,0.3915 -0.2003,0.51563 -0.5918,0.51563 l -1.40429,0 c -0.3915,0 -0.5918,-0.12413 -0.5918,-0.51563 0,-0.3915 0.2003,-0.50586 0.5918,-0.50586 l 0.16211,0 -0.18946,-0.54297 -2.01562,0 -0.20117,0.54297 0.16211,0 c 0.3915,0 0.59179,0.11436 0.59179,0.50586 0,0.3915 -0.20029,0.51563 -0.59179,0.51563 l -1.20313,0 c -0.3915,0 -0.5918,-0.12413 -0.5918,-0.51563 0,-0.3342 0.18143,-0.50586 0.51563,-0.50586 l 0.0762,0 1.25,-3.47461 -0.38086,0 c -0.3915,0 -0.58398,-0.12412 -0.58398,-0.51562 0,-0.382 0.19069,-0.51563 0.59179,-0.51563 z m 11.1836,0 0.002,0 1.92774,0 c 1.5373,0 2.31054,0.60182 2.31054,1.72852 0,1.1936 -0.77324,1.82422 -2.31054,1.82422 l -0.79297,0 0,0.95312 0.46679,0 c 0.382,0 0.57422,0.12396 0.57422,0.50586 0,0.382 -0.19222,0.51563 -0.57422,0.51563 l -1.60351,0 c -0.3819,0 -0.57227,-0.13363 -0.57227,-0.51563 0,-0.3246 0.181,-0.50586 0.4961,-0.50586 l 0.0762,0 0,-3.47461 -0.0664,0 c -0.3247,0 -0.50586,-0.18142 -0.50586,-0.51562 0,-0.3724 0.19037,-0.51563 0.57227,-0.51563 z m -9.81641,1.03125 -0.67773,1.9668 1.35742,0 -0.67969,-1.9668 z m 10.95508,0.0371 0,1.4336 0.6582,0 c 0.7352,0 1.10742,-0.25867 1.10743,-0.72657 0,-0.4679 -0.37223,-0.70703 -1.10743,-0.70703 l -0.6582,0 z" color="#000" font-family="sans-serif" font-weight="400" overflow="visible" transform="translate(0 1004.362)"></path></g></svg>