<svg height="512" width="512" xmlns="http://www.w3.org/2000/svg"><path clip-rule="evenodd" d="m478.4598389 347.9648743v30.210968c0 2.9888916-1.9159851 5.6252747-4.7592773 6.5296021l-47.6232605 15.3737183c-2.0922241.6974182-4.3684082.3218994-6.1311035-.980957-1.7780151-1.2875366-2.8356323-3.3491211-2.8356323-5.5256653v-32.9929504l-44.5883789 8.4915771v33.5754089c0 3.4257507-2.5444031 6.315033-5.9394836 6.7825317l-64.453125 8.8287659c-.2988892.0229797-.6207886.0613098-.9273376.0613098-1.6400757 0-3.2494812-.5977783-4.5063477-1.6860352-1.4944458-1.3182068-2.3451538-3.1881714-2.3451538-5.1807861v-35.5450134l-33.2688293.1379395v.0076599l-2.4371338-.0076599-2.4447632.0076599v-.0076599l-33.2611847-.1379395v35.5450134c0 1.9926147-.8583527 3.8625793-2.3528137 5.1807861-1.2568817 1.0882568-2.8662872 1.6860352-4.498703 1.6860352-.314209 0-.6284332-.0383301-.9426575-.0613098l-64.453125-8.8287659c-3.3874359-.4674988-5.9318237-3.356781-5.9318237-6.7825317v-33.575409l-44.5960464-8.4915771v32.9929504c0 2.1765442-1.0499573 4.2381287-2.8203049 5.5256653-1.7780075 1.3028564-4.0541763 1.6783752-6.1464081.980957l-47.6309395-15.3737183c-2.827961-.9043274-4.743927-3.5407104-4.743927-6.5296021v-30.210968l-29.4062462-9.8863831c-1.4561243 6.2153931-2.2608266 12.5840759-2.2608266 19.0140381 0 78.9454956 111.2180557 139.8809204 248.6772003 140.317749h.1685944.1762695c137.459137-.4368286 248.6772156-61.3722534 248.6772156-140.317749 0-5.8705139-.6744385-11.6567383-1.8929749-17.3663025zm-447.175932-139.9928131v122.9821014l16.5769482 5.5869446c2.7896461.9349976 4.6749573 3.5407104 4.6749573 6.4913025v30.1650085l33.9202805 10.9440002v-31.8357239c0-2.0692444.904335-3.985199 2.4754257-5.2803955 1.5787582-1.3181763 3.6326752-1.8469849 5.6636047-1.4714661l58.3067017 11.1279602c3.2341614.6054382 5.5792999 3.4334106 5.5792999 6.7211914v33.2458801l50.734787 6.9281311v-34.5563965c0-1.8469849.7357483-3.57901 2.0232697-4.8665466 1.2798615-1.2722168 3.0195465-1.9849548 4.8512268-1.9849548h.0153198l42.5421295.1686096 42.526825-.1686096c1.8776245.0076599 3.5866699.712738 4.8665161 1.9849548 1.2951965 1.2875366 2.0232849 3.0195618 2.0232849 4.8665466v34.5563965l50.7424316-6.9281311v-33.2458801c0-3.2877808 2.329834-6.1157532 5.5639954-6.7211914l58.3143921-11.1279602c2.0079346-.3755188 4.0848389.1532898 5.6559143 1.4714661 1.571106 1.2951965 2.4907532 3.2111816 2.4907532 5.2803955v31.8357239l33.9126282-10.9440002v-30.1650085c0-2.950592 1.8776245-5.5563049 4.6672974-6.4913025l11.3041992-3.8089294v-124.7601014h.3065491c11.01297-14.0555267 21.2059021-28.8697815 30.977356-44.6650238-12.982605-22.0949249-28.8774719-41.8370514-45.8759155-60.1306992-15.7645569 7.932106-31.0769958 16.9218216-45.5386963 26.4863358-7.2347107-7.1887131-15.3890686-13.0745621-23.3901672-19.2286453-7.8707886-6.315033-16.7301941-10.9440002-25.1451111-16.3393707 2.506073-18.6461945 3.7476196-37.0011444 4.2457886-56.1531525-21.6964417-10.9133472-44.8336182-18.1557007-68.2314148-23.3518143-9.3422852 15.6956034-17.8874817 32.701725-25.3214417 49.3246613-8.8287659-1.4714584-17.6958618-2.023262-26.5706177-2.1228943v-.0153351c-.0613098 0-.1149597.0153351-.1686096.0153351-.0612946 0-.1149445-.0153351-.1685944-.0153351v.0153351c-8.8900757.0996323-17.7495117.6514206-26.5782928 2.1228943-7.4339447-16.6229362-15.9714966-33.6290588-25.3290863-49.3246613-23.3901062 5.196084-46.5273285 12.4384375-68.2160645 23.3517838.4904785 19.1520081 1.7320251 37.5069733 4.2457733 56.1531677-8.4225922 5.3953629-17.2820206 10.0243378-25.1528168 16.3393631-7.9934158 6.1540909-16.155426 12.0399323-23.3901215 19.2286377-14.4693832-9.5644989-29.7741241-18.5542145-45.5387001-26.4863205-16.9984589 18.2936554-32.8933211 38.0357742-45.8759118 60.1306992 9.77143 15.7952423 19.9643745 30.6094971 30.9773521 44.6650238zm160.0169659 59.0202179c0 27.6742249-22.4244843 50.0986938-50.0987091 50.0986938-27.6512375 0-50.0833817-22.424469-50.0833817-50.0986938 0-27.658905 22.4321442-50.0680542 50.0833817-50.0680542 27.6742248 0 50.0987091 22.4091491 50.0987091 50.0680542m-12.0537262 2.9712829c0 18.3626404-14.8755798 33.2381897-33.2535248 33.2381897-18.3626328 0-33.2535324-14.8755493-33.2535324-33.2381897s14.8908997-33.2535248 33.2535324-33.2535248c18.377945 0 33.2535248 14.8908997 33.2535248 33.2535248m79.7931061 51.6866455c-8.9054108 0-16.1247864-6.5602722-16.1247864-14.6532898v-46.1211853c0-8.0776978 7.2193756-14.6533051 16.1247864-14.6533051 8.905426 0 16.1401062 6.5756073 16.1401062 14.6533051v46.1211548c0 8.0930481-7.2346802 14.6533203-16.1401062 14.6533203m79.8046265-51.6866455c0 18.3626404 14.8755798 33.2381897 33.2305298 33.2381897 18.3779602 0 33.25354-14.8755493 33.25354-33.2381897s-14.8755798-33.2535248-33.25354-33.2535248c-18.35495 0-33.2305298 14.8908997-33.2305298 33.2535248m-12.0567933-2.9712829c0 27.6742249 22.424469 50.0986938 50.0986938 50.0986938 27.658905 0 50.083374-22.424469 50.083374-50.0986938 0-27.658905-22.424469-50.0680542-50.083374-50.0680542-27.6742248 0-50.0986938 22.4091491-50.0986938 50.0680542" fill-rule="evenodd"/></svg>