<svg xmlns="http://www.w3.org/2000/svg" enable-background="new 0 0 24 24" viewBox="0 0 24 24" id="google-analytics"><path fill="#FFC107" d="M7.579,9.474v6.316H1.894C0.853,15.79,0,16.642,0,17.684v4.422C0,23.148,0.853,24,1.894,24H15.79V7.579H9.474C8.432,7.579,7.579,8.432,7.579,9.474L7.579,9.474z"></path><path fill="#DEA806" d="M7.456,15.79H1.894C0.853,15.79,0,16.642,0,17.684v4.422C0,23.148,0.853,24,1.894,24h5.562V15.79L7.456,15.79z"></path><path fill="#F57C00" d="M22.074,0h-4.342c-1.058,0-1.926,0.869-1.926,1.926V24h6.269C23.131,24,24,23.131,24,22.074V1.926C24,0.869,23.131,0,22.074,0L22.074,0z"></path><path fill="#D56C00" d="M19.895,0h-2.164c-1.058,0-1.926,0.869-1.926,1.926v5.669l4.09,4.097V0L19.895,0z"></path><defs><polyline id="c" points="15.805 7.595 15.805 24 19.895 24 19.895 11.692 15.805 7.595"></polyline></defs></svg>